<svg xmlns="http://www.w3.org/2000/svg" xmlns:xlink="http://www.w3.org/1999/xlink" width="210.11" height="156.067" viewBox="0 0 210.11 156.067"><defs><clipPath id="a"><rect width="210.11" height="156.067" fill="none"></rect></clipPath></defs><g clip-path="url(#a)"><path d="M22.861,118.9H21.8l-.176-.736c-.482-1.933-.878-2.775-4.25-2.775H13.717v14.96c0,3.658.478,4.28,3.511,4.28v1.063H5.67v-1.063c3.032,0,3.473-.622,3.473-4.28v-14.96H5.49c-3.336,0-3.733.842-4.215,2.775L1.1,118.9H0l.331-5.158H22.567Z" fill="#fff"></path><path d="M42.237,129.951c3.225,3.548,4.611,4.39,6.843,4.684v1.059H41.146l-6.516-9.622H33.572v4.279c0,3.663.474,4.284,3.507,4.284v1.059H25.519v-1.059c3.041,0,3.479-.621,3.479-4.284V119.082c0-3.654-.438-4.276-3.479-4.276v-1.058H37.778c4.533,0,7.39,2.779,7.39,6.18,0,3.184-2.49,5.776-6.471,6.144Zm-1.974-10.023c0-2.489-1.5-4.537-4.68-4.537H33.572v9.037h2.011c3.184,0,4.68-2.015,4.68-4.5" fill="#fff"></path><path d="M56.525,131.853c-.838,1.974-.29,2.78,2.747,2.78V135.7H50.419v-1.062c2.522,0,3.359-.622,4.5-3.221l7.934-18.288h.768L71.6,131.412c1.022,2.342,1.533,3.221,4.464,3.221V135.7h-12v-1.062c3.218,0,3.585-.842,2.747-2.78l-1.541-3.478H58.025Zm5.122-11.817-2.89,6.695h5.816Z" fill="#fff"></path><path d="M78.066,134.635c3.038,0,3.475-.625,3.475-4.284V119.086c0-3.658-.437-4.279-3.475-4.279v-1.063H90.137c8.486,0,12.185,4.938,12.185,10.975s-3.7,10.971-12.185,10.971H78.066Zm8.049-4.721c0,3.548.478,4.133,3.507,4.133h.368c5.931,0,7.137-5.2,7.137-9.328s-1.206-9.332-7.137-9.332H86.115Z" fill="#fff"></path><path d="M104.263,135.694v-1.059c3.037,0,3.474-.625,3.474-4.283v-11.27c0-3.654-.437-4.279-3.474-4.279v-1.055h11.559V114.8c-3.037,0-3.515.625-3.515,4.279v11.27c0,3.658.478,4.283,3.515,4.283v1.059Z" fill="#fff"></path><path d="M141.292,118.9h-1.063l-.177-.736c-.478-1.933-.883-2.775-4.247-2.775h-3.658v14.96c0,3.658.479,4.28,3.511,4.28v1.063H124.1v-1.063c3.032,0,3.47-.622,3.47-4.28v-14.96H123.92c-3.331,0-3.736.842-4.206,2.775l-.189.736h-1.1l.331-5.158H141Z" fill="#fff"></path><path d="M143.956,135.694v-1.059c3.033,0,3.47-.625,3.47-4.283v-11.27c0-3.654-.437-4.279-3.47-4.279v-1.055h11.559V114.8c-3.041,0-3.515.625-3.515,4.279v11.27c0,3.658.474,4.283,3.515,4.283v1.059Z" fill="#fff"></path><path d="M170.425,136.316c-6.691,0-12.181-5.232-12.181-11.6s5.49-11.6,12.181-11.6c6.732,0,12.222,5.228,12.222,11.6s-5.49,11.6-12.222,11.6m0-21.435c-5.159,0-7.28,5.412-7.28,9.839s2.121,9.838,7.28,9.838c5.195,0,7.28-5.412,7.28-9.838s-2.085-9.839-7.28-9.839" fill="#fff"></path><path d="M204.952,119.084c0-3.654-.478-4.275-3.511-4.275v-1.067h8.669v1.067c-3.074,0-3.515.621-3.515,4.275v17.229h-.912l-15.148-18.071v12.111c0,3.659.478,4.28,3.515,4.28V135.7h-8.628v-1.063c3.029,0,3.47-.621,3.47-4.28V119.084c0-3.654-.441-4.275-3.47-4.275v-1.067h7.308L204.952,128.3Z" fill="#fff"></path><path d="M54,155.627a1.658,1.658,0,0,0-.408-.9,4.074,4.074,0,0,1-2.924,1.336,4.984,4.984,0,0,1,0-9.963,4.016,4.016,0,0,1,2.924,1.335,1.658,1.658,0,0,0,.408-.895h.44V150h-.456c-.424-2.043-1.7-3.143-3.253-3.143-2.153,0-2.765,2.279-2.765,4.227s.612,4.228,2.765,4.228c1.556,0,2.829-1.132,3.253-3.144h.456v3.458Z" fill="#874d29"></path><path d="M58.262,154.15c-.361.848-.125,1.194,1.18,1.194v.456h-3.8v-.456c1.084,0,1.446-.267,1.933-1.383l3.411-7.857h.329l3.426,7.857c.44,1.006.66,1.383,1.917,1.383v.456H61.5v-.456c1.383,0,1.54-.362,1.179-1.194l-.66-1.493H58.907Zm2.2-5.076-1.242,2.875h2.5Z" fill="#874d29"></path><path d="M75.722,149.027c0,1.461-1.225,2.64-3.174,2.64H70.741v1.839c0,1.571.205,1.838,1.509,1.838v.456H67.284v-.456c1.3,0,1.493-.267,1.493-1.838v-4.841c0-1.571-.189-1.838-1.493-1.838v-.456h5.264c1.949,0,3.174,1.195,3.174,2.656m-2.105,0a1.838,1.838,0,0,0-2.011-1.948h-.865v3.881h.865a1.828,1.828,0,0,0,2.011-1.933" fill="#874d29"></path><path d="M77,155.8v-.456c1.3,0,1.493-.267,1.493-1.838v-4.841c0-1.571-.189-1.838-1.493-1.838v-.456h4.966v.456c-1.305,0-1.508.267-1.508,1.838v4.841c0,1.571.2,1.838,1.508,1.838v.456Z" fill="#874d29"></path><path d="M93.137,148.587h-.456l-.078-.314c-.2-.834-.377-1.195-1.823-1.195H89.209v6.427c0,1.572.2,1.839,1.508,1.839v.456H85.752v-.456c1.3,0,1.492-.267,1.492-1.839v-6.427H85.673c-1.43,0-1.6.361-1.808,1.195l-.078.314h-.472l.141-2.216h9.555Z" fill="#874d29"></path><path d="M95.017,154.15c-.361.848-.125,1.194,1.18,1.194v.456h-3.8v-.456c1.084,0,1.446-.267,1.933-1.383l3.411-7.857h.329l3.426,7.857c.44,1.006.66,1.383,1.917,1.383v.456H98.255v-.456c1.383,0,1.54-.362,1.179-1.194l-.66-1.493H95.662Zm2.2-5.076-1.242,2.875h2.5Z" fill="#874d29"></path><path d="M104.039,146.827v-.456H109v.456c-1.3,0-1.509.267-1.509,1.838v4.589c0,1.572.2,1.839,1.509,1.839h1.807c1.446,0,1.618-.362,1.823-1.194l.079-.315h.455l-.126,2.216h-9v-.456c1.3,0,1.493-.267,1.493-1.839v-4.84c0-1.571-.189-1.838-1.493-1.838" fill="#874d29"></path><path d="M128.179,153.161c0,1.461-1.226,2.639-3.175,2.639h-5.782v-.455c1.3,0,1.493-.268,1.493-1.839v-4.841c0-1.57-.189-1.838-1.493-1.838v-.456h5.342c1.73,0,2.829,1.053,2.829,2.358a2.21,2.21,0,0,1-1.162,1.948,2.588,2.588,0,0,1,1.948,2.484m-5.5-2.7h.88a1.579,1.579,0,0,0,1.729-1.681,1.6,1.6,0,0,0-1.729-1.7h-.88Zm3.394,2.672a1.846,1.846,0,0,0-2-1.965h-1.4v2.185c0,1.493.2,1.744,1.509,1.744h-.111a1.839,1.839,0,0,0,2-1.964" fill="#874d29"></path><path d="M131.292,154.15c-.362.848-.126,1.194,1.178,1.194v.456h-3.8v-.456c1.085,0,1.446-.267,1.933-1.383l3.41-7.857h.331l3.425,7.857c.44,1.006.66,1.383,1.917,1.383v.456h-5.155v-.456c1.384,0,1.54-.362,1.179-1.194l-.66-1.493h-3.111Zm2.2-5.076-1.241,2.875h2.5Z" fill="#874d29"></path><path d="M149.018,148.665c0-1.571-.2-1.838-1.509-1.838v-.456h3.725v.456c-1.32,0-1.508.267-1.508,1.838v7.4h-.393l-6.506-7.763v5.2c0,1.572.2,1.839,1.509,1.839v.456h-3.709v-.456c1.3,0,1.493-.267,1.493-1.839v-4.84c0-1.571-.189-1.838-1.493-1.838v-.456h3.143l5.248,6.255Z" fill="#874d29"></path><path d="M162.236,154.417a3.689,3.689,0,0,0,2.027.928v.455h-5.218v-.455c.818,0,1.2-.283.582-.928l-3.1-3.362-.675.55v1.9c0,1.571.2,1.839,1.509,1.839v.455H152.4v-.455c1.3,0,1.492-.268,1.492-1.839v-4.84c0-1.571-.188-1.839-1.492-1.839v-.456h4.966v.456c-1.305,0-1.509.268-1.509,1.839v2.106l3.3-2.656c.392-.33,1.367-1.289.063-1.289v-.456h3.787v.456a4.014,4.014,0,0,0-2.892,1.289l-2.23,1.791Z" fill="#874d29"></path><path d="M145.793,7.9a.667.667,0,0,0-.712-.079c-13.481,6.566-26.8,18.962-39.6,36.846l-2.106,2.874c-4.461,6.242-7.794,10.727-10.5,14.123-2.616,3.348-4.962,6.211-6.786,8.272-1.7,1.862-3.578,3.771-5.582,5.678-3.292,3.231-8.264,6.14-14.773,8.645a58.491,58.491,0,0,1-21.011,3.781c-4.816,0-8.61-.825-11.275-2.453-2.571-1.565-3.821-3.419-3.821-5.668a5.58,5.58,0,0,1,.4-2.332,2.813,2.813,0,0,1,.26-.406,3.2,3.2,0,0,0,.563,2.121,3.31,3.31,0,0,0,2.815,1.13,3.126,3.126,0,0,0,2.355-1.055,3.362,3.362,0,0,0,.9-2.263c0-1.379-.542-3.7-4.178-3.7A5.207,5.207,0,0,0,28.744,75.3a6.931,6.931,0,0,0-1.636,4.748c0,3.039,1.529,5.579,4.547,7.539,2.973,1.941,7.509,2.883,13.873,2.883a69.626,69.626,0,0,0,28.185-6.142A74.292,74.292,0,0,0,86.8,76.64,76.692,76.692,0,0,0,98.6,66.033a79.406,79.406,0,0,0,7.455-9.9c2.4-3.738,5.858-9.658,10.278-17.586a81.421,81.421,0,0,1,7.991-11.755,57.92,57.92,0,0,1,9.765-9.385,85.113,85.113,0,0,1,12.393-7.744.677.677,0,0,0,.111-1.126Z" fill="#874d28"></path><path d="M182.957.432A.668.668,0,0,0,182.328,0h-1.4a.676.676,0,0,0-.4.133,14.939,14.939,0,0,1-5.96,1.98,65.11,65.11,0,0,1-10.911.786c-4.575,0-11.305-.458-20-1.366C134.139.622,126.236.161,120.173.161A74.318,74.318,0,0,0,97.44,3.315a51.02,51.02,0,0,0-15.916,8.14,36.113,36.113,0,0,0-9.187,10.3,20.624,20.624,0,0,0-2.983,9.79A10.269,10.269,0,0,0,73,39.835c2.4,2.03,5.691,3.059,9.774,3.059a37.433,37.433,0,0,0,9.161-1.681c4-1.1,8.774-3.829,14.195-8.119,5.394-4.3,10.271-10.8,14.488-19.347a.667.667,0,0,0-.027-.652.684.684,0,0,0-.577-.32H118.93a.68.68,0,0,0-.609.381,52.542,52.542,0,0,1-7.67,11.669,52.947,52.947,0,0,1-9.659,8.781,41.838,41.838,0,0,1-9.94,5.205,26.607,26.607,0,0,1-8.759,1.809,11.973,11.973,0,0,1-7.786-2.452,7.985,7.985,0,0,1-2.881-6.462,18.292,18.292,0,0,1,2.963-9.273,35.8,35.8,0,0,1,8.951-9.6,46.58,46.58,0,0,1,14.511-7.44,59.417,59.417,0,0,1,18.773-2.8c3.545,0,11.991.973,25.1,2.893,9.263,1.4,15.035,2.11,17.146,2.11a57.235,57.235,0,0,0,13.059-1.738c5.017-1.2,8.5-2.728,10.652-4.682a.673.673,0,0,0,.174-.741" fill="#874d28"></path></g></svg>